<?xml version="1.0" encoding="UTF-8" standalone="no"?>
<svg
   xmlns:dc="http://purl.org/dc/elements/1.1/"
   xmlns:cc="http://creativecommons.org/ns#"
   xmlns:rdf="http://www.w3.org/1999/02/22-rdf-syntax-ns#"
   xmlns:svg="http://www.w3.org/2000/svg"
   xmlns="http://www.w3.org/2000/svg"
   xml:space="preserve"
   enable-background="new 0 0 266.893 266.895"
   viewBox="0 0 115.89301 221.895"
   height="221.89499"
   width="115.89301"
   y="0px"
   x="0px"
   id="Layer_1"
   version="1.1"><metadata
     id="metadata9"><rdf:RDF><cc:Work
         rdf:about=""><dc:format>image/svg+xml</dc:format><dc:type
           rdf:resource="http://purl.org/dc/dcmitype/StillImage" /><dc:title></dc:title></cc:Work></rdf:RDF></metadata><defs
     id="defs7" /><path
     style="fill:#006699;fill-opacity:1"
     d="m 74.365191,220.69973 0,-99.803 33.498999,0 5.016,-38.894982 -38.514999,0 0,-24.831975 c 0,-11.260994 3.127,-18.934994 19.275,-18.934994 l 20.595999,-0.009 0,-34.7880007 c -3.562,-0.4740001 -15.788,-1.5330002 -30.011999,-1.5330002 -29.695,0 -50.025,18.1260009 -50.025,51.4130009 l 0,28.683969 -33.5850003,0 0,38.894982 33.5850003,0 0,99.803 40.166,0 z"
     id="f" /><path
     style="fill:#006699;fill-opacity:1;stroke-width:0.94023299"
     d="M 34.252635,170.47307 V 120.17061 H 17.798557 1.3444796 V 101.36595 82.561289 H 17.674337 34.004195 L 34.506623,62.581337 C 34.862706,48.421048 35.45496,40.958188 36.539938,36.959988 41.276625,19.505062 52.312787,8.4871256 69.473856,4.0804625 75.386194,2.5622772 97.348315,2.0911319 108.39312,3.245542 l 5.77932,0.6040588 v 16.6536702 16.65367 l -14.03709,0.497536 C 75.930558,38.512401 73.807479,40.973438 73.764852,68.222735 l -0.02243,14.338554 h 19.274777 c 10.601121,0 19.274771,0.359244 19.274771,0.79832 0,0.439075 -1.05775,8.795396 -2.35055,18.569601 -1.2928,9.77421 -2.35056,17.8673 -2.35058,17.98465 -2e-5,0.11734 -7.51014,0.32889 -16.689166,0.47012 l -16.689136,0.25675 -0.243297,50.0674 -0.243298,50.06741 H 53.989289 34.252635 Z"
     id="path818" /></svg>